<?xml version="1.0" encoding="UTF-8" standalone="no"?><svg xmlns="http://www.w3.org/2000/svg" xmlns:xlink="http://www.w3.org/1999/xlink" contentScriptType="application/ecmascript" contentStyleType="text/css" height="321px" preserveAspectRatio="none" style="width:447px;height:321px;" version="1.1" viewBox="0 0 447 321" width="447px" zoomAndPan="magnify"><defs><filter height="300%" id="f1brtybnisg8u4" width="300%" x="-1" y="-1"><feGaussianBlur result="blurOut" stdDeviation="2.0"/><feColorMatrix in="blurOut" result="blurOut2" type="matrix" values="0 0 0 0 0 0 0 0 0 0 0 0 0 0 0 0 0 0 .4 0"/><feOffset dx="4.0" dy="4.0" in="blurOut2" result="blurOut3"/><feBlend in="SourceGraphic" in2="blurOut3" mode="normal"/></filter></defs><g><!--class ModelModule--><rect fill="#FEFECE" filter="url(#f1brtybnisg8u4)" height="48" id="ModelModule" style="stroke: #A80036; stroke-width: 1.5;" width="109" x="108.07" y="8"/><ellipse cx="123.07" cy="24" fill="#ADD1B2" rx="11" ry="11" style="stroke: #A80036; stroke-width: 1.0;"/><path d="M123.1794,19.5313 Q122.2575,19.5313 121.5231,19.8438 Q120.8044,20.1563 120.3044,20.75 Q119.8044,21.3281 119.5231,22.2031 Q119.2575,23.0781 119.2575,24.1719 Q119.2575,25.6094 119.695,26.6563 Q120.1481,27.7031 120.9919,28.25 Q121.8513,28.7969 123.1638,28.7969 Q123.945,28.7969 124.6325,28.6719 Q125.3356,28.5313 126.3356,28.2188 L126.3356,30.0938 Q125.4763,30.4219 124.7106,30.5469 Q123.9606,30.6719 122.945,30.6719 Q121.0231,30.6719 119.7106,29.875 Q118.4138,29.0625 117.7575,27.5938 Q117.1013,26.1094 117.1013,24.1406 Q117.1013,22.7188 117.4919,21.5469 Q117.8981,20.3594 118.6794,19.4844 Q119.4606,18.6094 120.6013,18.1406 Q121.7419,17.6563 123.2106,17.6563 Q124.1638,17.6563 125.0544,17.8594 Q125.9606,18.0469 126.8981,18.5156 L126.07,20.2969 Q125.2888,19.9219 124.6325,19.7344 Q123.9763,19.5313 123.1794,19.5313 Z "/><text fill="#000000" font-family="sans-serif" font-size="12" lengthAdjust="spacingAndGlyphs" textLength="77" x="137.07" y="28.656">ModelModule</text><line style="stroke: #A80036; stroke-width: 1.5;" x1="109.07" x2="216.07" y1="40" y2="40"/><line style="stroke: #A80036; stroke-width: 1.5;" x1="109.07" x2="216.07" y1="48" y2="48"/><!--class ControllerModule--><rect fill="#FEFECE" filter="url(#f1brtybnisg8u4)" height="48" id="ControllerModule" style="stroke: #A80036; stroke-width: 1.5;" width="130" x="97.57" y="135"/><ellipse cx="112.57" cy="151" fill="#ADD1B2" rx="11" ry="11" style="stroke: #A80036; stroke-width: 1.0;"/><path d="M112.6794,146.5313 Q111.7575,146.5313 111.0231,146.8438 Q110.3044,147.1563 109.8044,147.75 Q109.3044,148.3281 109.0231,149.2031 Q108.7575,150.0781 108.7575,151.1719 Q108.7575,152.6094 109.195,153.6563 Q109.6481,154.7031 110.4919,155.25 Q111.3513,155.7969 112.6638,155.7969 Q113.445,155.7969 114.1325,155.6719 Q114.8356,155.5313 115.8356,155.2188 L115.8356,157.0938 Q114.9763,157.4219 114.2106,157.5469 Q113.4606,157.6719 112.445,157.6719 Q110.5231,157.6719 109.2106,156.875 Q107.9138,156.0625 107.2575,154.5938 Q106.6013,153.1094 106.6013,151.1406 Q106.6013,149.7188 106.9919,148.5469 Q107.3981,147.3594 108.1794,146.4844 Q108.9606,145.6094 110.1013,145.1406 Q111.2419,144.6563 112.7106,144.6563 Q113.6638,144.6563 114.5544,144.8594 Q115.4606,145.0469 116.3981,145.5156 L115.57,147.2969 Q114.7888,146.9219 114.1325,146.7344 Q113.4763,146.5313 112.6794,146.5313 Z "/><text fill="#000000" font-family="sans-serif" font-size="12" lengthAdjust="spacingAndGlyphs" textLength="98" x="126.57" y="155.656">ControllerModule</text><line style="stroke: #A80036; stroke-width: 1.5;" x1="98.57" x2="226.57" y1="167" y2="167"/><line style="stroke: #A80036; stroke-width: 1.5;" x1="98.57" x2="226.57" y1="175" y2="175"/><!--class ViewModule--><rect fill="#FEFECE" filter="url(#f1brtybnisg8u4)" height="48" id="ViewModule" style="stroke: #A80036; stroke-width: 1.5;" width="100" x="112.57" y="262"/><ellipse cx="127.57" cy="278" fill="#ADD1B2" rx="11" ry="11" style="stroke: #A80036; stroke-width: 1.0;"/><path d="M127.6794,273.5313 Q126.7575,273.5313 126.0231,273.8438 Q125.3044,274.1563 124.8044,274.75 Q124.3044,275.3281 124.0231,276.2031 Q123.7575,277.0781 123.7575,278.1719 Q123.7575,279.6094 124.195,280.6563 Q124.6481,281.7031 125.4919,282.25 Q126.3513,282.7969 127.6638,282.7969 Q128.445,282.7969 129.1325,282.6719 Q129.8356,282.5313 130.8356,282.2188 L130.8356,284.0938 Q129.9763,284.4219 129.2106,284.5469 Q128.4606,284.6719 127.445,284.6719 Q125.5231,284.6719 124.2106,283.875 Q122.9138,283.0625 122.2575,281.5938 Q121.6013,280.1094 121.6013,278.1406 Q121.6013,276.7188 121.9919,275.5469 Q122.3981,274.3594 123.1794,273.4844 Q123.9606,272.6094 125.1013,272.1406 Q126.2419,271.6563 127.7106,271.6563 Q128.6638,271.6563 129.5544,271.8594 Q130.4606,272.0469 131.3981,272.5156 L130.57,274.2969 Q129.7888,273.9219 129.1325,273.7344 Q128.4763,273.5313 127.6794,273.5313 Z "/><text fill="#000000" font-family="sans-serif" font-size="12" lengthAdjust="spacingAndGlyphs" textLength="68" x="141.57" y="282.656">ViewModule</text><line style="stroke: #A80036; stroke-width: 1.5;" x1="113.57" x2="211.57" y1="294" y2="294"/><line style="stroke: #A80036; stroke-width: 1.5;" x1="113.57" x2="211.57" y1="302" y2="302"/><!--link ViewModule to ControllerModule--><path d="M212.95,271.69 C247.14,259.91 283.32,240.34 266.57,213 C258.74,200.22 246.76,190.41 233.68,182.91 " fill="none" id="ViewModule-ControllerModule" style="stroke: #A80036; stroke-width: 1.0;"/><polygon fill="#A80036" points="229.34,180.55,235.3452,188.3562,233.7355,182.9333,239.1584,181.3235,229.34,180.55" style="stroke: #A80036; stroke-width: 1.0;"/><text fill="#000000" font-family="sans-serif" font-size="13" lengthAdjust="spacingAndGlyphs" textLength="164" x="271.57" y="227.897">send user input notification</text><!--link ControllerModule to ViewModule--><path d="M97.14,165.99 C66.15,172.49 31.79,185.83 12.57,213 C-14.44,251.19 52.73,269.87 105.74,278.45 " fill="none" id="ControllerModule-ViewModule" style="stroke: #A80036; stroke-width: 1.0;"/><polygon fill="#A80036" points="110.63,279.21,102.3545,273.87,105.6898,278.439,101.1208,281.7743,110.63,279.21" style="stroke: #A80036; stroke-width: 1.0;"/><text fill="#000000" font-family="sans-serif" font-size="13" lengthAdjust="spacingAndGlyphs" textLength="244" x="13.57" y="227.897">forward refresh view request from model</text><!--link ModelModule to ControllerModule--><path d="M101.62,38.87 C70.74,45.28 35.79,58.57 16.57,86 C-8,121.06 47.64,139.84 97.16,149.33 " fill="none" id="ModelModule-ControllerModule" style="stroke: #A80036; stroke-width: 1.0;"/><polygon fill="#A80036" points="106.25,37.96,96.6513,35.7544,101.3422,38.9159,98.1807,43.6068,106.25,37.96" style="stroke: #A80036; stroke-width: 1.0;"/><text fill="#000000" font-family="sans-serif" font-size="13" lengthAdjust="spacingAndGlyphs" textLength="244" x="17.57" y="100.897">forward user input notification from view</text><!--link ModelModule to ControllerModule--><path d="M217.38,47.86 C236.33,55.91 255.56,68.03 266.57,86 C279.85,107.67 259.86,124.47 233.97,136.36 " fill="none" id="ModelModule-ControllerModule-1" style="stroke: #A80036; stroke-width: 1.0;"/><polygon fill="#A80036" points="229.4,138.37,239.2488,138.4015,233.9755,136.3539,236.0231,131.0806,229.4,138.37" style="stroke: #A80036; stroke-width: 1.0;"/><text fill="#000000" font-family="sans-serif" font-size="13" lengthAdjust="spacingAndGlyphs" textLength="95" x="271.57" y="100.897">refresh the view</text><!--
@startuml
class ModelModule

class ControllerModule

class ViewModule

ViewModule - -> ControllerModule: send user input notification
ModelModule <- - ControllerModule: forward user input notification from view
ModelModule - -> ControllerModule: refresh the view
ControllerModule - -> ViewModule: forward refresh view request from model
@enduml

PlantUML version 1.2019.06(Fri May 24 19:10:25 CEST 2019)
(APACHE source distribution)
Java Runtime: OpenJDK Runtime Environment
JVM: OpenJDK 64-Bit Server VM
Java Version: 21.0.3+9-LTS
Operating System: Linux
OS Version: 6.10.6-200.fc40.x86_64
Default Encoding: UTF-8
Language: it
Country: IT
--></g></svg>