<?xml version="1.0" encoding="UTF-8" standalone="no"?><svg xmlns="http://www.w3.org/2000/svg" xmlns:xlink="http://www.w3.org/1999/xlink" contentScriptType="application/ecmascript" contentStyleType="text/css" height="803px" preserveAspectRatio="none" style="width:999px;height:803px;" version="1.1" viewBox="0 0 999 803" width="999px" zoomAndPan="magnify"><defs/><g><!--cluster view.component.game.gameboard.hand--><polygon fill="#FFFFFF" points="22,23.54,315.875,23.54,322.875,48.6079,977,48.6079,977,791,22,791,22,23.54" style="stroke: #000000; stroke-width: 1.5;"/><line style="stroke: #000000; stroke-width: 1.5;" x1="22" x2="322.875" y1="48.6079" y2="48.6079"/><text fill="#000000" font-family="sans-serif" font-size="14" font-weight="bold" lengthAdjust="spacingAndGlyphs" textLength="287.875" x="26" y="40.5059">view.component.game.gameboard.hand</text><!--class CardComponent--><rect fill="#FEFECE" height="302.6921" id="CardComponent" style="stroke: #A80036; stroke-width: 1.5;" width="280" x="297" y="61.54"/><ellipse cx="386.75" cy="77.54" fill="#ADD1B2" rx="11" ry="11" style="stroke: #A80036; stroke-width: 1.0;"/><path d="M386.8594,73.0712 Q385.9375,73.0712 385.2031,73.3837 Q384.4844,73.6962 383.9844,74.29 Q383.4844,74.8681 383.2031,75.7431 Q382.9375,76.6181 382.9375,77.7119 Q382.9375,79.1494 383.375,80.1962 Q383.8281,81.2431 384.6719,81.79 Q385.5313,82.3369 386.8438,82.3369 Q387.625,82.3369 388.3125,82.2119 Q389.0156,82.0712 390.0156,81.7587 L390.0156,83.6337 Q389.1563,83.9619 388.3906,84.0869 Q387.6406,84.2119 386.625,84.2119 Q384.7031,84.2119 383.3906,83.415 Q382.0938,82.6025 381.4375,81.1337 Q380.7813,79.6494 380.7813,77.6806 Q380.7813,76.2587 381.1719,75.0869 Q381.5781,73.8994 382.3594,73.0244 Q383.1406,72.1494 384.2813,71.6806 Q385.4219,71.1962 386.8906,71.1962 Q387.8438,71.1962 388.7344,71.3994 Q389.6406,71.5869 390.5781,72.0556 L389.75,73.8369 Q388.9688,73.4619 388.3125,73.2744 Q387.6563,73.0712 386.8594,73.0712 Z "/><text fill="#000000" font-family="sans-serif" font-size="12" lengthAdjust="spacingAndGlyphs" textLength="92" x="407.25" y="82.196">CardComponent</text><line style="stroke: #A80036; stroke-width: 1.5;" x1="298" x2="576" y1="93.54" y2="93.54"/><ellipse cx="308" cy="106.5309" fill="none" rx="3" ry="3" style="stroke: #038048; stroke-width: 1.0;"/><text fill="#000000" font-family="sans-serif" font-size="11" lengthAdjust="spacingAndGlyphs" textLength="82" x="317" y="109.2989">String fxmlPath</text><rect fill="none" height="6" style="stroke: #C82930; stroke-width: 1.0;" width="6" x="305" y="118.5128"/><text fill="#000000" font-family="sans-serif" font-size="11" lengthAdjust="spacingAndGlyphs" textLength="78" x="317" y="124.2808">Pane cardPane</text><rect fill="none" height="6" style="stroke: #C82930; stroke-width: 1.0;" width="6" x="305" y="133.4947"/><text fill="#000000" font-family="sans-serif" font-size="11" lengthAdjust="spacingAndGlyphs" textLength="70" x="317" y="139.2627">Text cardTitle</text><rect fill="none" height="6" style="stroke: #C82930; stroke-width: 1.0;" width="6" x="305" y="148.4766"/><text fill="#000000" font-family="sans-serif" font-size="11" lengthAdjust="spacingAndGlyphs" textLength="108" x="317" y="154.2446">Text cardDescription</text><ellipse cx="308" cy="166.4585" fill="none" rx="3" ry="3" style="stroke: #038048; stroke-width: 1.0;"/><text fill="#000000" font-family="sans-serif" font-size="11" lengthAdjust="spacingAndGlyphs" textLength="69" x="317" y="169.2265">String cardId</text><ellipse cx="308" cy="181.4404" fill="none" rx="3" ry="3" style="stroke: #038048; stroke-width: 1.0;"/><text fill="#000000" font-family="sans-serif" font-size="11" lengthAdjust="spacingAndGlyphs" textLength="146" x="317" y="184.2084">Boolean containSpecialCard</text><rect fill="none" height="6" style="stroke: #C82930; stroke-width: 1.0;" width="6" x="305" y="193.4223"/><text fill="#000000" font-family="sans-serif" font-size="11" lengthAdjust="spacingAndGlyphs" textLength="219" x="317" y="199.1902">CardHighlightManager highlightManager</text><rect fill="none" height="6" style="stroke: #C82930; stroke-width: 1.0;" width="6" x="305" y="208.4042"/><text fill="#000000" font-family="sans-serif" font-size="11" lengthAdjust="spacingAndGlyphs" textLength="129" x="317" y="214.1721">GamePhase currentState</text><rect fill="none" height="6" style="stroke: #C82930; stroke-width: 1.0;" width="6" x="305" y="223.386"/><text fill="#000000" font-family="sans-serif" font-size="11" lengthAdjust="spacingAndGlyphs" textLength="238" x="317" y="229.154">playCardHandler: EventHandler[MouseEvent]</text><rect fill="none" height="6" style="stroke: #C82930; stroke-width: 1.0;" width="6" x="305" y="238.3679"/><text fill="#000000" font-family="sans-serif" font-size="11" lengthAdjust="spacingAndGlyphs" textLength="254" x="317" y="244.1359">discardCardHandler: EventHandler[MouseEvent]</text><ellipse cx="308" cy="256.3498" fill="none" rx="3" ry="3" style="stroke: #038048; stroke-width: 1.0;"/><text fill="#000000" font-family="sans-serif" font-size="11" lengthAdjust="spacingAndGlyphs" textLength="77" x="317" y="259.1178">getPane: Node</text><line style="stroke: #A80036; stroke-width: 1.5;" x1="298" x2="576" y1="266.3408" y2="266.3408"/><ellipse cx="308" cy="279.3317" fill="#84BE84" rx="3" ry="3" style="stroke: #038048; stroke-width: 1.0;"/><text fill="#000000" font-family="sans-serif" font-size="11" lengthAdjust="spacingAndGlyphs" textLength="77" x="317" y="282.0997">initialize(): Unit</text><rect fill="#F24D5C" height="6" style="stroke: #C82930; stroke-width: 1.0;" width="6" x="305" y="291.3136"/><text fill="#000000" font-family="sans-serif" font-size="11" lengthAdjust="spacingAndGlyphs" textLength="101" x="317" y="297.0816">addHandlers(): Unit</text><ellipse cx="308" cy="309.2955" fill="#84BE84" rx="3" ry="3" style="stroke: #038048; stroke-width: 1.0;"/><text fill="#000000" font-family="sans-serif" font-size="11" lengthAdjust="spacingAndGlyphs" textLength="128" x="317" y="312.0635">setCard(card: Card): Unit</text><ellipse cx="308" cy="324.2774" fill="#84BE84" rx="3" ry="3" style="stroke: #038048; stroke-width: 1.0;"/><text fill="#000000" font-family="sans-serif" font-size="11" lengthAdjust="spacingAndGlyphs" textLength="60" x="317" y="327.0453">reset(): Unit</text><ellipse cx="308" cy="339.2593" fill="#84BE84" rx="3" ry="3" style="stroke: #038048; stroke-width: 1.0;"/><text fill="#000000" font-family="sans-serif" font-size="11" lengthAdjust="spacingAndGlyphs" textLength="108" x="317" y="342.0272">onEnableView(): Unit</text><ellipse cx="308" cy="354.2411" fill="#84BE84" rx="3" ry="3" style="stroke: #038048; stroke-width: 1.0;"/><text fill="#000000" font-family="sans-serif" font-size="11" lengthAdjust="spacingAndGlyphs" textLength="111" x="317" y="357.0091">onDisableView(): Unit</text><!--class CardHighlightManager--><rect fill="#FEFECE" height="122.9094" id="CardHighlightManager" style="stroke: #A80036; stroke-width: 1.5;" width="321" x="37.5" y="469.18"/><ellipse cx="129.75" cy="485.18" fill="#ADD1B2" rx="11" ry="11" style="stroke: #A80036; stroke-width: 1.0;"/><path d="M129.8594,480.7113 Q128.9375,480.7113 128.2031,481.0238 Q127.4844,481.3363 126.9844,481.93 Q126.4844,482.5081 126.2031,483.3831 Q125.9375,484.2581 125.9375,485.3519 Q125.9375,486.7894 126.375,487.8363 Q126.8281,488.8831 127.6719,489.43 Q128.5313,489.9769 129.8438,489.9769 Q130.625,489.9769 131.3125,489.8519 Q132.0156,489.7113 133.0156,489.3988 L133.0156,491.2738 Q132.1563,491.6019 131.3906,491.7269 Q130.6406,491.8519 129.625,491.8519 Q127.7031,491.8519 126.3906,491.055 Q125.0938,490.2425 124.4375,488.7738 Q123.7813,487.2894 123.7813,485.3206 Q123.7813,483.8988 124.1719,482.7269 Q124.5781,481.5394 125.3594,480.6644 Q126.1406,479.7894 127.2813,479.3206 Q128.4219,478.8363 129.8906,478.8363 Q130.8438,478.8363 131.7344,479.0394 Q132.6406,479.2269 133.5781,479.6956 L132.75,481.4769 Q131.9688,481.1019 131.3125,480.9144 Q130.6563,480.7113 129.8594,480.7113 Z "/><text fill="#000000" font-family="sans-serif" font-size="12" lengthAdjust="spacingAndGlyphs" textLength="128" x="150.25" y="489.836">CardHighlightManager</text><line style="stroke: #A80036; stroke-width: 1.5;" x1="38.5" x2="357.5" y1="501.18" y2="501.18"/><rect fill="none" height="6" style="stroke: #C82930; stroke-width: 1.0;" width="6" x="45.5" y="511.1709"/><text fill="#000000" font-family="sans-serif" font-size="11" lengthAdjust="spacingAndGlyphs" textLength="123" x="57.5" y="516.9389">Option[Pane] cardPane</text><rect fill="none" height="6" style="stroke: #C82930; stroke-width: 1.0;" width="6" x="45.5" y="526.1528"/><text fill="#000000" font-family="sans-serif" font-size="11" lengthAdjust="spacingAndGlyphs" textLength="177" x="57.5" y="531.9208">CardHighlightState highlightState</text><ellipse cx="48.5" cy="544.1347" fill="none" rx="3" ry="3" style="stroke: #038048; stroke-width: 1.0;"/><text fill="#000000" font-family="sans-serif" font-size="11" lengthAdjust="spacingAndGlyphs" textLength="235" x="57.5" y="546.9027">getCurrentState: Option[CardHighlightState]</text><line style="stroke: #A80036; stroke-width: 1.5;" x1="38.5" x2="357.5" y1="554.1257" y2="554.1257"/><ellipse cx="48.5" cy="567.1166" fill="#84BE84" rx="3" ry="3" style="stroke: #038048; stroke-width: 1.0;"/><text fill="#000000" font-family="sans-serif" font-size="11" lengthAdjust="spacingAndGlyphs" textLength="121" x="57.5" y="569.8846">initialize(cp: Pane): Unit</text><ellipse cx="48.5" cy="582.0985" fill="#84BE84" rx="3" ry="3" style="stroke: #038048; stroke-width: 1.0;"/><text fill="#000000" font-family="sans-serif" font-size="11" lengthAdjust="spacingAndGlyphs" textLength="295" x="57.5" y="584.8665">switch(toState: Option[CardHighlightState] = None): Unit</text><!--class CardHighlightState--><rect fill="#FEFECE" height="69.9638" id="CardHighlightState" style="stroke: #A80036; stroke-width: 1.5;" width="138" x="129" y="701.04"/><ellipse cx="144" cy="717.04" fill="#EB937F" rx="11" ry="11" style="stroke: #A80036; stroke-width: 1.0;"/><path d="M147.4688,723.54 L140.1563,723.54 L140.1563,710.8681 L147.4688,710.8681 L147.4688,712.7431 L142.2031,712.7431 L142.2031,716.0088 L147.1563,716.0088 L147.1563,717.8681 L142.2031,717.8681 L142.2031,721.665 L147.4688,721.665 L147.4688,723.54 Z "/><text fill="#000000" font-family="sans-serif" font-size="12" lengthAdjust="spacingAndGlyphs" textLength="106" x="158" y="721.696">CardHighlightState</text><line style="stroke: #A80036; stroke-width: 1.5;" x1="130" x2="266" y1="733.04" y2="733.04"/><text fill="#000000" font-family="sans-serif" font-size="11" lengthAdjust="spacingAndGlyphs" textLength="62" x="135" y="748.7989">Highlighted</text><text fill="#000000" font-family="sans-serif" font-size="11" lengthAdjust="spacingAndGlyphs" textLength="76" x="135" y="763.7808">Unhighlighted</text><!--class Switchable--><rect fill="#FEFECE" height="77.9638" id="Switchable" style="stroke: #A80036; stroke-width: 1.5;" width="142" x="454" y="697.04"/><ellipse cx="491.5" cy="713.04" fill="#ADD8E6" rx="11" ry="11" style="stroke: #A80036; stroke-width: 1.0;"/><path d="M492.5156,720.29 L490.4688,720.29 L490.4688,709.4931 L486.6719,709.4931 L486.6719,707.6181 L496.2969,707.6181 L496.2969,709.4931 L492.5156,709.4931 L492.5156,720.29 Z "/><text fill="#000000" font-family="sans-serif" font-size="12" lengthAdjust="spacingAndGlyphs" textLength="60" x="510.5" y="717.696">Switchable</text><line style="stroke: #A80036; stroke-width: 1.5;" x1="455" x2="595" y1="729.04" y2="729.04"/><ellipse cx="465" cy="742.0309" fill="none" rx="3" ry="3" style="stroke: #038048; stroke-width: 1.0;"/><text fill="#000000" font-family="sans-serif" font-size="11" lengthAdjust="spacingAndGlyphs" textLength="96" x="474" y="744.7989">getCurrentState: T</text><line style="stroke: #A80036; stroke-width: 1.5;" x1="455" x2="595" y1="752.0219" y2="752.0219"/><ellipse cx="465" cy="765.0128" fill="#84BE84" rx="3" ry="3" style="stroke: #038048; stroke-width: 1.0;"/><text fill="#000000" font-family="sans-serif" font-size="11" lengthAdjust="spacingAndGlyphs" textLength="116" x="474" y="767.7808">switch(toState: T): Unit</text><!--class ICanSwitchHandler--><rect fill="#FEFECE" height="212.8008" id="ICanSwitchHandler" style="stroke: #A80036; stroke-width: 1.5;" width="567" x="393.5" y="424.24"/><ellipse cx="619.25" cy="440.24" fill="#ADD8E6" rx="11" ry="11" style="stroke: #A80036; stroke-width: 1.0;"/><path d="M620.2656,447.49 L618.2188,447.49 L618.2188,436.6931 L614.4219,436.6931 L614.4219,434.8181 L624.0469,434.8181 L624.0469,436.6931 L620.2656,436.6931 L620.2656,447.49 Z "/><text fill="#000000" font-family="sans-serif" font-size="12" lengthAdjust="spacingAndGlyphs" textLength="107" x="639.75" y="444.896">ICanSwitchHandler</text><line style="stroke: #A80036; stroke-width: 1.5;" x1="394.5" x2="959.5" y1="456.24" y2="456.24"/><ellipse cx="404.5" cy="469.2309" fill="none" rx="3" ry="3" style="stroke: #038048; stroke-width: 1.0;"/><text fill="#000000" font-family="sans-serif" font-size="11" lengthAdjust="spacingAndGlyphs" textLength="96" x="413.5" y="471.9989">getCurrentState: T</text><polygon fill="none" points="404.5,479.2128,408.5,483.2128,404.5,487.2128,400.5,483.2128" style="stroke: #B38D22; stroke-width: 1.0;"/><text fill="#000000" font-family="sans-serif" font-size="11" lengthAdjust="spacingAndGlyphs" textLength="77" x="413.5" y="486.9808">getPane: Node</text><line style="stroke: #A80036; stroke-width: 1.5;" x1="394.5" x2="959.5" y1="494.2038" y2="494.2038"/><ellipse cx="404.5" cy="507.1947" fill="#84BE84" rx="3" ry="3" style="stroke: #038048; stroke-width: 1.0;"/><text fill="#000000" font-family="sans-serif" font-size="11" lengthAdjust="spacingAndGlyphs" textLength="116" x="413.5" y="509.9627">switch(toState: T): Unit</text><ellipse cx="404.5" cy="522.1766" fill="#84BE84" rx="3" ry="3" style="stroke: #038048; stroke-width: 1.0;"/><text fill="#000000" font-family="sans-serif" font-size="11" lengthAdjust="spacingAndGlyphs" textLength="521" x="413.5" y="524.9446">addHandler(state: T, eventType: EventType[MouseEvent], handler: EventHandler[MouseEvent]): Unit</text><ellipse cx="404.5" cy="537.1585" fill="#84BE84" rx="3" ry="3" style="stroke: #038048; stroke-width: 1.0;"/><text fill="#000000" font-family="sans-serif" font-size="11" lengthAdjust="spacingAndGlyphs" textLength="474" x="413.5" y="539.9265">getHandlers(state: T, eventType: EventType[MouseEvent]): List[EventHandler[MouseEvent]]</text><rect fill="#F24D5C" height="6" style="stroke: #C82930; stroke-width: 1.0;" width="6" x="401.5" y="549.1404"/><text fill="#000000" font-family="sans-serif" font-size="11" lengthAdjust="spacingAndGlyphs" textLength="150" x="413.5" y="554.9084">disableActualHandlers(): Unit</text><rect fill="#F24D5C" height="6" style="stroke: #C82930; stroke-width: 1.0;" width="6" x="401.5" y="564.1223"/><text fill="#000000" font-family="sans-serif" font-size="11" lengthAdjust="spacingAndGlyphs" textLength="107" x="413.5" y="569.8902">resetHandlers(): Unit</text><rect fill="#F24D5C" height="6" style="stroke: #C82930; stroke-width: 1.0;" width="6" x="401.5" y="579.1042"/><text fill="#000000" font-family="sans-serif" font-size="11" lengthAdjust="spacingAndGlyphs" textLength="148" x="413.5" y="584.8721">enableActualHandlers(): Unit</text><rect fill="#F24D5C" height="6" style="stroke: #C82930; stroke-width: 1.0;" width="6" x="401.5" y="594.086"/><text fill="#000000" font-family="sans-serif" font-size="11" lengthAdjust="spacingAndGlyphs" textLength="119" x="413.5" y="599.854">onSwitch(state: T): Unit</text><rect fill="#F24D5C" height="6" style="stroke: #C82930; stroke-width: 1.0;" width="6" x="401.5" y="609.0679"/><text fill="#000000" font-family="sans-serif" font-size="11" lengthAdjust="spacingAndGlyphs" textLength="541" x="413.5" y="614.8359">removeHandler(state: T, eventType: EventType[MouseEvent], handler: EventHandler[MouseEvent]): Unit</text><rect fill="#F24D5C" height="6" style="stroke: #C82930; stroke-width: 1.0;" width="6" x="401.5" y="624.0498"/><text fill="#000000" font-family="sans-serif" font-size="11" lengthAdjust="spacingAndGlyphs" textLength="520" x="413.5" y="629.8178">updateHandlers(state: T, action: (EventType[MouseEvent], EventHandler[MouseEvent]) =&gt; Unit): Unit</text><!--link ICanSwitchHandler to Switchable--><path d="M585.33,654.3 C573.89,669.6 562.94,684.25 553.59,696.76 " fill="none" id="ICanSwitchHandler-Switchable" style="stroke: #A80036; stroke-width: 1.0;"/><polygon fill="none" points="579.4,650.54,596.98,638.71,590.61,658.92,579.4,650.54" style="stroke: #A80036; stroke-width: 1.0;"/><!--link CardComponent to ICanSwitchHandler--><path d="M564.32,381.39 C575.33,395.88 586.26,410.26 596.74,424.04 " fill="none" id="CardComponent-ICanSwitchHandler" style="stroke: #A80036; stroke-width: 1.0;"/><polygon fill="none" points="558.82,385.73,552.29,365.57,569.97,377.26,558.82,385.73" style="stroke: #A80036; stroke-width: 1.0;"/><!--link CardComponent to CardHighlightManager--><path d="M314.56,375.65 C289.37,408.92 264.36,441.97 244,468.86 " fill="none" id="CardComponent-CardHighlightManager" style="stroke: #A80036; stroke-width: 1.0;"/><polygon fill="#A80036" points="322.19,365.57,315.3806,367.9431,314.9521,375.1414,321.7615,372.7684,322.19,365.57" style="stroke: #A80036; stroke-width: 1.0;"/><!--link CardHighlightManager to Switchable--><path d="M313.89,603.72 C364.28,635.06 421.28,670.51 463.34,696.66 " fill="none" id="CardHighlightManager-Switchable" style="stroke: #A80036; stroke-width: 1.0;"/><polygon fill="none" points="310.24,609.69,296.95,593.18,317.63,597.8,310.24,609.69" style="stroke: #A80036; stroke-width: 1.0;"/><!--link CardHighlightManager to CardHighlightState--><path d="M198,613.84 C198,644.11 198,676.78 198,700.56 " fill="none" id="CardHighlightManager-CardHighlightState" style="stroke: #A80036; stroke-width: 1.0; stroke-dasharray: 7.0,7.0;"/><polygon fill="none" points="191,613.9,198,593.9,205,613.9,191,613.9" style="stroke: #A80036; stroke-width: 1.0;"/><!--
@startuml
hide empty members
skinparam shadowing false

package view.component.game.gameboard.hand {
  class CardComponent {
    + String fxmlPath
    - Pane cardPane
    - Text cardTitle
    - Text cardDescription
    + String cardId
    + Boolean containSpecialCard
    + initialize(): Unit
    - CardHighlightManager highlightManager
    - GamePhase currentState
    - playCardHandler: EventHandler[MouseEvent]
    - discardCardHandler: EventHandler[MouseEvent]
    - addHandlers(): Unit
    + setCard(card: Card): Unit
    + reset(): Unit
    + onEnableView(): Unit
    + onDisableView(): Unit
    + getPane: Node
  }

  class CardHighlightManager {
    - Option[Pane] cardPane
    - CardHighlightState highlightState
    + initialize(cp: Pane): Unit
    + switch(toState: Option[CardHighlightState] = None): Unit
    + getCurrentState: Option[CardHighlightState]
  }

  enum CardHighlightState {
    Highlighted
    Unhighlighted
  }

  class Switchable << (T,lightblue)>>  {
    + switch(toState: T): Unit
    + getCurrentState: T
  }

  class ICanSwitchHandler << (T,lightblue)>>  {
    + switch(toState: T): Unit
    + getCurrentState: T
    + addHandler(state: T, eventType: EventType[MouseEvent], handler: EventHandler[MouseEvent]): Unit
    + getHandlers(state: T, eventType: EventType[MouseEvent]): List[EventHandler[MouseEvent]]
    - disableActualHandlers(): Unit
    - resetHandlers(): Unit
    - enableActualHandlers(): Unit
    - onSwitch(state: T): Unit
    - removeHandler(state: T, eventType: EventType[MouseEvent], handler: EventHandler[MouseEvent]): Unit
    - updateHandlers(state: T, action: (EventType[MouseEvent], EventHandler[MouseEvent]) => Unit): Unit
    # getPane: Node
  }
}

ICanSwitchHandler <|- - Switchable
CardComponent <|- - ICanSwitchHandler
CardComponent *- - CardHighlightManager
CardHighlightManager <|- - Switchable
CardHighlightManager <|.. CardHighlightState

@enduml

PlantUML version 1.2019.06(Fri May 24 19:10:25 CEST 2019)
(APACHE source distribution)
Java Runtime: OpenJDK Runtime Environment
JVM: OpenJDK 64-Bit Server VM
Java Version: 21.0.3+9-LTS
Operating System: Linux
OS Version: 6.10.6-200.fc40.x86_64
Default Encoding: UTF-8
Language: it
Country: IT
--></g></svg>