<?xml version="1.0" encoding="UTF-8" standalone="no"?><svg xmlns="http://www.w3.org/2000/svg" xmlns:xlink="http://www.w3.org/1999/xlink" contentScriptType="application/ecmascript" contentStyleType="text/css" height="545px" preserveAspectRatio="none" style="width:871px;height:545px;" version="1.1" viewBox="0 0 871 545" width="871px" zoomAndPan="magnify"><defs/><g><!--class GameComponent--><rect fill="#FEFECE" height="32" id="GameComponent" style="stroke: #A80036; stroke-width: 1.5;" width="131" x="15" y="78"/><ellipse cx="30" cy="94" fill="#ADD1B2" rx="11" ry="11" style="stroke: #A80036; stroke-width: 1.0;"/><path d="M30.1094,89.5313 Q29.1875,89.5313 28.4531,89.8438 Q27.7344,90.1563 27.2344,90.75 Q26.7344,91.3281 26.4531,92.2031 Q26.1875,93.0781 26.1875,94.1719 Q26.1875,95.6094 26.625,96.6563 Q27.0781,97.7031 27.9219,98.25 Q28.7813,98.7969 30.0938,98.7969 Q30.875,98.7969 31.5625,98.6719 Q32.2656,98.5313 33.2656,98.2188 L33.2656,100.0938 Q32.4063,100.4219 31.6406,100.5469 Q30.8906,100.6719 29.875,100.6719 Q27.9531,100.6719 26.6406,99.875 Q25.3438,99.0625 24.6875,97.5938 Q24.0313,96.1094 24.0313,94.1406 Q24.0313,92.7188 24.4219,91.5469 Q24.8281,90.3594 25.6094,89.4844 Q26.3906,88.6094 27.5313,88.1406 Q28.6719,87.6563 30.1406,87.6563 Q31.0938,87.6563 31.9844,87.8594 Q32.8906,88.0469 33.8281,88.5156 L33,90.2969 Q32.2188,89.9219 31.5625,89.7344 Q30.9063,89.5313 30.1094,89.5313 Z "/><text fill="#000000" font-family="sans-serif" font-size="12" lengthAdjust="spacingAndGlyphs" textLength="99" x="44" y="98.656">GameComponent</text><!--class BicolumnComponent--><rect fill="#FEFECE" height="32" id="BicolumnComponent" style="stroke: #A80036; stroke-width: 1.5;" width="149" x="6" y="279"/><ellipse cx="21" cy="295" fill="#ADD1B2" rx="11" ry="11" style="stroke: #A80036; stroke-width: 1.0;"/><path d="M21.1094,290.5313 Q20.1875,290.5313 19.4531,290.8438 Q18.7344,291.1563 18.2344,291.75 Q17.7344,292.3281 17.4531,293.2031 Q17.1875,294.0781 17.1875,295.1719 Q17.1875,296.6094 17.625,297.6563 Q18.0781,298.7031 18.9219,299.25 Q19.7813,299.7969 21.0938,299.7969 Q21.875,299.7969 22.5625,299.6719 Q23.2656,299.5313 24.2656,299.2188 L24.2656,301.0938 Q23.4063,301.4219 22.6406,301.5469 Q21.8906,301.6719 20.875,301.6719 Q18.9531,301.6719 17.6406,300.875 Q16.3438,300.0625 15.6875,298.5938 Q15.0313,297.1094 15.0313,295.1406 Q15.0313,293.7188 15.4219,292.5469 Q15.8281,291.3594 16.6094,290.4844 Q17.3906,289.6094 18.5313,289.1406 Q19.6719,288.6563 21.1406,288.6563 Q22.0938,288.6563 22.9844,288.8594 Q23.8906,289.0469 24.8281,289.5156 L24,291.2969 Q23.2188,290.9219 22.5625,290.7344 Q21.9063,290.5313 21.1094,290.5313 Z "/><text fill="#000000" font-family="sans-serif" font-size="12" lengthAdjust="spacingAndGlyphs" textLength="117" x="35" y="299.656">BicolumnComponent</text><!--class DeckComponent--><rect fill="#FEFECE" height="32" id="DeckComponent" style="stroke: #A80036; stroke-width: 1.5;" width="125" x="230" y="435"/><ellipse cx="245" cy="451" fill="#ADD1B2" rx="11" ry="11" style="stroke: #A80036; stroke-width: 1.0;"/><path d="M245.1094,446.5313 Q244.1875,446.5313 243.4531,446.8438 Q242.7344,447.1563 242.2344,447.75 Q241.7344,448.3281 241.4531,449.2031 Q241.1875,450.0781 241.1875,451.1719 Q241.1875,452.6094 241.625,453.6563 Q242.0781,454.7031 242.9219,455.25 Q243.7813,455.7969 245.0938,455.7969 Q245.875,455.7969 246.5625,455.6719 Q247.2656,455.5313 248.2656,455.2188 L248.2656,457.0938 Q247.4063,457.4219 246.6406,457.5469 Q245.8906,457.6719 244.875,457.6719 Q242.9531,457.6719 241.6406,456.875 Q240.3438,456.0625 239.6875,454.5938 Q239.0313,453.1094 239.0313,451.1406 Q239.0313,449.7188 239.4219,448.5469 Q239.8281,447.3594 240.6094,446.4844 Q241.3906,445.6094 242.5313,445.1406 Q243.6719,444.6563 245.1406,444.6563 Q246.0938,444.6563 246.9844,444.8594 Q247.8906,445.0469 248.8281,445.5156 L248,447.2969 Q247.2188,446.9219 246.5625,446.7344 Q245.9063,446.5313 245.1094,446.5313 Z "/><text fill="#000000" font-family="sans-serif" font-size="12" lengthAdjust="spacingAndGlyphs" textLength="93" x="259" y="455.656">DeckComponent</text><!--class DiceComponent--><rect fill="#FEFECE" height="32" id="DiceComponent" style="stroke: #A80036; stroke-width: 1.5;" width="122" x="231.5" y="212"/><ellipse cx="246.5" cy="228" fill="#ADD1B2" rx="11" ry="11" style="stroke: #A80036; stroke-width: 1.0;"/><path d="M246.6094,223.5313 Q245.6875,223.5313 244.9531,223.8438 Q244.2344,224.1563 243.7344,224.75 Q243.2344,225.3281 242.9531,226.2031 Q242.6875,227.0781 242.6875,228.1719 Q242.6875,229.6094 243.125,230.6563 Q243.5781,231.7031 244.4219,232.25 Q245.2813,232.7969 246.5938,232.7969 Q247.375,232.7969 248.0625,232.6719 Q248.7656,232.5313 249.7656,232.2188 L249.7656,234.0938 Q248.9063,234.4219 248.1406,234.5469 Q247.3906,234.6719 246.375,234.6719 Q244.4531,234.6719 243.1406,233.875 Q241.8438,233.0625 241.1875,231.5938 Q240.5313,230.1094 240.5313,228.1406 Q240.5313,226.7188 240.9219,225.5469 Q241.3281,224.3594 242.1094,223.4844 Q242.8906,222.6094 244.0313,222.1406 Q245.1719,221.6563 246.6406,221.6563 Q247.5938,221.6563 248.4844,221.8594 Q249.3906,222.0469 250.3281,222.5156 L249.5,224.2969 Q248.7188,223.9219 248.0625,223.7344 Q247.4063,223.5313 246.6094,223.5313 Z "/><text fill="#000000" font-family="sans-serif" font-size="12" lengthAdjust="spacingAndGlyphs" textLength="90" x="260.5" y="232.656">DiceComponent</text><!--class GridComponent--><rect fill="#FEFECE" height="32" id="GridComponent" style="stroke: #A80036; stroke-width: 1.5;" width="121" x="232" y="11"/><ellipse cx="247" cy="27" fill="#ADD1B2" rx="11" ry="11" style="stroke: #A80036; stroke-width: 1.0;"/><path d="M247.1094,22.5313 Q246.1875,22.5313 245.4531,22.8438 Q244.7344,23.1563 244.2344,23.75 Q243.7344,24.3281 243.4531,25.2031 Q243.1875,26.0781 243.1875,27.1719 Q243.1875,28.6094 243.625,29.6563 Q244.0781,30.7031 244.9219,31.25 Q245.7813,31.7969 247.0938,31.7969 Q247.875,31.7969 248.5625,31.6719 Q249.2656,31.5313 250.2656,31.2188 L250.2656,33.0938 Q249.4063,33.4219 248.6406,33.5469 Q247.8906,33.6719 246.875,33.6719 Q244.9531,33.6719 243.6406,32.875 Q242.3438,32.0625 241.6875,30.5938 Q241.0313,29.1094 241.0313,27.1406 Q241.0313,25.7188 241.4219,24.5469 Q241.8281,23.3594 242.6094,22.4844 Q243.3906,21.6094 244.5313,21.1406 Q245.6719,20.6563 247.1406,20.6563 Q248.0938,20.6563 248.9844,20.8594 Q249.8906,21.0469 250.8281,21.5156 L250,23.2969 Q249.2188,22.9219 248.5625,22.7344 Q247.9063,22.5313 247.1094,22.5313 Z "/><text fill="#000000" font-family="sans-serif" font-size="12" lengthAdjust="spacingAndGlyphs" textLength="89" x="261" y="31.656">GridComponent</text><!--class HandComponent--><rect fill="#FEFECE" height="32" id="HandComponent" style="stroke: #A80036; stroke-width: 1.5;" width="127" x="229" y="78"/><ellipse cx="244" cy="94" fill="#ADD1B2" rx="11" ry="11" style="stroke: #A80036; stroke-width: 1.0;"/><path d="M244.1094,89.5313 Q243.1875,89.5313 242.4531,89.8438 Q241.7344,90.1563 241.2344,90.75 Q240.7344,91.3281 240.4531,92.2031 Q240.1875,93.0781 240.1875,94.1719 Q240.1875,95.6094 240.625,96.6563 Q241.0781,97.7031 241.9219,98.25 Q242.7813,98.7969 244.0938,98.7969 Q244.875,98.7969 245.5625,98.6719 Q246.2656,98.5313 247.2656,98.2188 L247.2656,100.0938 Q246.4063,100.4219 245.6406,100.5469 Q244.8906,100.6719 243.875,100.6719 Q241.9531,100.6719 240.6406,99.875 Q239.3438,99.0625 238.6875,97.5938 Q238.0313,96.1094 238.0313,94.1406 Q238.0313,92.7188 238.4219,91.5469 Q238.8281,90.3594 239.6094,89.4844 Q240.3906,88.6094 241.5313,88.1406 Q242.6719,87.6563 244.1406,87.6563 Q245.0938,87.6563 245.9844,87.8594 Q246.8906,88.0469 247.8281,88.5156 L247,90.2969 Q246.2188,89.9219 245.5625,89.7344 Q244.9063,89.5313 244.1094,89.5313 Z "/><text fill="#000000" font-family="sans-serif" font-size="12" lengthAdjust="spacingAndGlyphs" textLength="95" x="258" y="98.656">HandComponent</text><!--class GameInfoComponent--><rect fill="#FEFECE" height="32" id="GameInfoComponent" style="stroke: #A80036; stroke-width: 1.5;" width="153" x="216" y="279"/><ellipse cx="231" cy="295" fill="#ADD1B2" rx="11" ry="11" style="stroke: #A80036; stroke-width: 1.0;"/><path d="M231.1094,290.5313 Q230.1875,290.5313 229.4531,290.8438 Q228.7344,291.1563 228.2344,291.75 Q227.7344,292.3281 227.4531,293.2031 Q227.1875,294.0781 227.1875,295.1719 Q227.1875,296.6094 227.625,297.6563 Q228.0781,298.7031 228.9219,299.25 Q229.7813,299.7969 231.0938,299.7969 Q231.875,299.7969 232.5625,299.6719 Q233.2656,299.5313 234.2656,299.2188 L234.2656,301.0938 Q233.4063,301.4219 232.6406,301.5469 Q231.8906,301.6719 230.875,301.6719 Q228.9531,301.6719 227.6406,300.875 Q226.3438,300.0625 225.6875,298.5938 Q225.0313,297.1094 225.0313,295.1406 Q225.0313,293.7188 225.4219,292.5469 Q225.8281,291.3594 226.6094,290.4844 Q227.3906,289.6094 228.5313,289.1406 Q229.6719,288.6563 231.1406,288.6563 Q232.0938,288.6563 232.9844,288.8594 Q233.8906,289.0469 234.8281,289.5156 L234,291.2969 Q233.2188,290.9219 232.5625,290.7344 Q231.9063,290.5313 231.1094,290.5313 Z "/><text fill="#000000" font-family="sans-serif" font-size="12" lengthAdjust="spacingAndGlyphs" textLength="121" x="245" y="299.656">GameInfoComponent</text><!--class SidebarComponent--><rect fill="#FEFECE" height="32" id="SidebarComponent" style="stroke: #A80036; stroke-width: 1.5;" width="140" x="222.5" y="145"/><ellipse cx="237.5" cy="161" fill="#ADD1B2" rx="11" ry="11" style="stroke: #A80036; stroke-width: 1.0;"/><path d="M237.6094,156.5313 Q236.6875,156.5313 235.9531,156.8438 Q235.2344,157.1563 234.7344,157.75 Q234.2344,158.3281 233.9531,159.2031 Q233.6875,160.0781 233.6875,161.1719 Q233.6875,162.6094 234.125,163.6563 Q234.5781,164.7031 235.4219,165.25 Q236.2813,165.7969 237.5938,165.7969 Q238.375,165.7969 239.0625,165.6719 Q239.7656,165.5313 240.7656,165.2188 L240.7656,167.0938 Q239.9063,167.4219 239.1406,167.5469 Q238.3906,167.6719 237.375,167.6719 Q235.4531,167.6719 234.1406,166.875 Q232.8438,166.0625 232.1875,164.5938 Q231.5313,163.1094 231.5313,161.1406 Q231.5313,159.7188 231.9219,158.5469 Q232.3281,157.3594 233.1094,156.4844 Q233.8906,155.6094 235.0313,155.1406 Q236.1719,154.6563 237.6406,154.6563 Q238.5938,154.6563 239.4844,154.8594 Q240.3906,155.0469 241.3281,155.5156 L240.5,157.2969 Q239.7188,156.9219 239.0625,156.7344 Q238.4063,156.5313 237.6094,156.5313 Z "/><text fill="#000000" font-family="sans-serif" font-size="12" lengthAdjust="spacingAndGlyphs" textLength="108" x="251.5" y="165.656">SidebarComponent</text><!--class WindRoseComponent--><rect fill="#FEFECE" height="32" id="WindRoseComponent" style="stroke: #A80036; stroke-width: 1.5;" width="152" x="216.5" y="502"/><ellipse cx="231.5" cy="518" fill="#ADD1B2" rx="11" ry="11" style="stroke: #A80036; stroke-width: 1.0;"/><path d="M231.6094,513.5313 Q230.6875,513.5313 229.9531,513.8438 Q229.2344,514.1563 228.7344,514.75 Q228.2344,515.3281 227.9531,516.2031 Q227.6875,517.0781 227.6875,518.1719 Q227.6875,519.6094 228.125,520.6563 Q228.5781,521.7031 229.4219,522.25 Q230.2813,522.7969 231.5938,522.7969 Q232.375,522.7969 233.0625,522.6719 Q233.7656,522.5313 234.7656,522.2188 L234.7656,524.0938 Q233.9063,524.4219 233.1406,524.5469 Q232.3906,524.6719 231.375,524.6719 Q229.4531,524.6719 228.1406,523.875 Q226.8438,523.0625 226.1875,521.5938 Q225.5313,520.1094 225.5313,518.1406 Q225.5313,516.7188 225.9219,515.5469 Q226.3281,514.3594 227.1094,513.4844 Q227.8906,512.6094 229.0313,512.1406 Q230.1719,511.6563 231.6406,511.6563 Q232.5938,511.6563 233.4844,511.8594 Q234.3906,512.0469 235.3281,512.5156 L234.5,514.2969 Q233.7188,513.9219 233.0625,513.7344 Q232.4063,513.5313 231.6094,513.5313 Z "/><text fill="#000000" font-family="sans-serif" font-size="12" lengthAdjust="spacingAndGlyphs" textLength="120" x="245.5" y="522.656">WindRoseComponent</text><!--class IViewComponent--><rect fill="#FEFECE" height="32" id="IViewComponent" style="stroke: #A80036; stroke-width: 1.5;" width="127" x="733" y="78"/><ellipse cx="748" cy="94" fill="#ADD8E6" rx="11" ry="11" style="stroke: #A80036; stroke-width: 1.0;"/><path d="M749.0156,101.25 L746.9688,101.25 L746.9688,90.4531 L743.1719,90.4531 L743.1719,88.5781 L752.7969,88.5781 L752.7969,90.4531 L749.0156,90.4531 L749.0156,101.25 Z "/><text fill="#000000" font-family="sans-serif" font-size="12" lengthAdjust="spacingAndGlyphs" textLength="95" x="762" y="98.656">IViewComponent</text><!--class IGridComponent--><rect fill="#FEFECE" height="32" id="IGridComponent" style="stroke: #A80036; stroke-width: 1.5;" width="125" x="488.5" y="11"/><ellipse cx="503.5" cy="27" fill="#ADD8E6" rx="11" ry="11" style="stroke: #A80036; stroke-width: 1.0;"/><path d="M504.5156,34.25 L502.4688,34.25 L502.4688,23.4531 L498.6719,23.4531 L498.6719,21.5781 L508.2969,21.5781 L508.2969,23.4531 L504.5156,23.4531 L504.5156,34.25 Z "/><text fill="#000000" font-family="sans-serif" font-size="12" lengthAdjust="spacingAndGlyphs" textLength="93" x="517.5" y="31.656">IGridComponent</text><!--class ISidebarComponent--><rect fill="#FEFECE" height="32" id="ISidebarComponent" style="stroke: #A80036; stroke-width: 1.5;" width="144" x="479" y="279"/><ellipse cx="494" cy="295" fill="#ADD8E6" rx="11" ry="11" style="stroke: #A80036; stroke-width: 1.0;"/><path d="M495.0156,302.25 L492.9688,302.25 L492.9688,291.4531 L489.1719,291.4531 L489.1719,289.5781 L498.7969,289.5781 L498.7969,291.4531 L495.0156,291.4531 L495.0156,302.25 Z "/><text fill="#000000" font-family="sans-serif" font-size="12" lengthAdjust="spacingAndGlyphs" textLength="112" x="508" y="299.656">ISidebarComponent</text><!--class IHandComponent--><rect fill="#FEFECE" height="32" id="IHandComponent" style="stroke: #A80036; stroke-width: 1.5;" width="131" x="485.5" y="78"/><ellipse cx="500.5" cy="94" fill="#ADD8E6" rx="11" ry="11" style="stroke: #A80036; stroke-width: 1.0;"/><path d="M501.5156,101.25 L499.4688,101.25 L499.4688,90.4531 L495.6719,90.4531 L495.6719,88.5781 L505.2969,88.5781 L505.2969,90.4531 L501.5156,90.4531 L501.5156,101.25 Z "/><text fill="#000000" font-family="sans-serif" font-size="12" lengthAdjust="spacingAndGlyphs" textLength="99" x="514.5" y="98.656">IHandComponent</text><!--link IGridComponent to IViewComponent--><path d="M611.88,43.48 C647.55,53.29 692.88,65.76 729.57,75.86 " fill="none" id="IGridComponent-IViewComponent" style="stroke: #A80036; stroke-width: 1.0;"/><polygon fill="#A80036" points="734.39,77.19,726.7736,70.9457,729.5692,75.8636,724.6513,78.6591,734.39,77.19" style="stroke: #A80036; stroke-width: 1.0;"/><text fill="#000000" font-family="sans-serif" font-size="13" lengthAdjust="spacingAndGlyphs" textLength="48" x="654" y="52.897">extends</text><!--link ISidebarComponent to IViewComponent--><path d="M571.93,278.55 C616.18,242.02 722.55,154.22 770.87,114.33 " fill="none" id="ISidebarComponent-IViewComponent" style="stroke: #A80036; stroke-width: 1.0;"/><polygon fill="#A80036" points="774.47,111.36,764.9836,114.0072,770.6149,114.544,770.078,120.1754,774.47,111.36" style="stroke: #A80036; stroke-width: 1.0;"/><text fill="#000000" font-family="sans-serif" font-size="13" lengthAdjust="spacingAndGlyphs" textLength="48" x="654" y="165.897">extends</text><!--link IHandComponent to IViewComponent--><path d="M616.93,94 C650.75,94 692.12,94 726.51,94 " fill="none" id="IHandComponent-IViewComponent" style="stroke: #A80036; stroke-width: 1.0;"/><polygon fill="#A80036" points="731.34,94,722.34,90,726.34,94,722.34,98,731.34,94" style="stroke: #A80036; stroke-width: 1.0;"/><text fill="#000000" font-family="sans-serif" font-size="13" lengthAdjust="spacingAndGlyphs" textLength="48" x="654" y="89.897">extends</text><!--link GridComponent to IGridComponent--><path d="M353.31,27 C391.82,27 441.95,27 481.97,27 " fill="none" id="GridComponent-IGridComponent" style="stroke: #A80036; stroke-width: 1.0;"/><polygon fill="#A80036" points="486.79,27,477.79,23,481.79,27,477.79,31,486.79,27" style="stroke: #A80036; stroke-width: 1.0;"/><text fill="#000000" font-family="sans-serif" font-size="13" lengthAdjust="spacingAndGlyphs" textLength="48" x="400" y="22.897">extends</text><!--link HandComponent to IHandComponent--><path d="M356.25,94 C393.41,94 440.61,94 479.12,94 " fill="none" id="HandComponent-IHandComponent" style="stroke: #A80036; stroke-width: 1.0;"/><polygon fill="#A80036" points="483.71,94,474.71,90,478.71,94,474.71,98,483.71,94" style="stroke: #A80036; stroke-width: 1.0;"/><text fill="#000000" font-family="sans-serif" font-size="13" lengthAdjust="spacingAndGlyphs" textLength="48" x="400" y="89.897">extends</text><!--link SidebarComponent to ISidebarComponent--><path d="M335.25,177.47 C367.05,190.5 411.57,209.81 449,230 C474.44,243.72 501.94,261.64 521.81,275.19 " fill="none" id="SidebarComponent-ISidebarComponent" style="stroke: #A80036; stroke-width: 1.0;"/><polygon fill="#A80036" points="525.7,277.85,520.5362,269.4634,521.5752,275.024,516.0146,276.0631,525.7,277.85" style="stroke: #A80036; stroke-width: 1.0;"/><text fill="#000000" font-family="sans-serif" font-size="13" lengthAdjust="spacingAndGlyphs" textLength="48" x="400" y="202.897">extends</text><!--link BicolumnComponent to ISidebarComponent--><path d="M113.94,311.45 C140.58,324 179.7,340.23 216,347 C282.85,359.47 301.66,356.48 369,347 C414.14,340.64 463.8,325.79 499.67,313.57 " fill="none" id="BicolumnComponent-ISidebarComponent" style="stroke: #A80036; stroke-width: 1.0;"/><polygon fill="#A80036" points="504.32,311.97,494.5103,311.0922,499.5881,313.5854,497.095,318.6632,504.32,311.97" style="stroke: #A80036; stroke-width: 1.0;"/><text fill="#000000" font-family="sans-serif" font-size="13" lengthAdjust="spacingAndGlyphs" textLength="48" x="268.5" y="342.897">extends</text><!--link BicolumnComponent to DiceComponent--><path d="M146.96,274.11 C176.96,264.54 211.99,253.37 240.06,244.41 " fill="none" id="BicolumnComponent-DiceComponent" style="stroke: #A80036; stroke-width: 1.0;"/><polygon fill="#A80036" points="134.58,278.06,141.5127,280.0442,146.0108,274.408,139.078,272.4237,134.58,278.06" style="stroke: #A80036; stroke-width: 1.0;"/><!--link BicolumnComponent to GameInfoComponent--><path d="M169.73,295 C185.05,295 200.86,295 215.8,295 " fill="none" id="BicolumnComponent-GameInfoComponent" style="stroke: #A80036; stroke-width: 1.0;"/><polygon fill="#A80036" points="156.76,295,162.76,299,168.76,295,162.76,291,156.76,295" style="stroke: #A80036; stroke-width: 1.0;"/><!--link DiceComponent to ISidebarComponent--><path d="M353.96,243.79 C392.06,253.75 441.36,266.62 480.99,276.97 " fill="none" id="DiceComponent-ISidebarComponent" style="stroke: #A80036; stroke-width: 1.0;"/><polygon fill="#A80036" points="485.8,278.23,478.1107,272.0757,480.9639,276.9603,476.0793,279.8135,485.8,278.23" style="stroke: #A80036; stroke-width: 1.0;"/><text fill="#000000" font-family="sans-serif" font-size="13" lengthAdjust="spacingAndGlyphs" textLength="48" x="400" y="252.897">extends</text><!--link DeckComponent to ISidebarComponent--><path d="M355.16,443.36 C385.16,437.57 420.74,427.48 449,410 C487.61,386.12 519.67,342.89 536.72,316.78 " fill="none" id="DeckComponent-ISidebarComponent" style="stroke: #A80036; stroke-width: 1.0;"/><polygon fill="#A80036" points="539.31,312.75,531.0785,318.1576,536.6062,316.9559,537.8079,322.4836,539.31,312.75" style="stroke: #A80036; stroke-width: 1.0;"/><text fill="#000000" font-family="sans-serif" font-size="13" lengthAdjust="spacingAndGlyphs" textLength="48" x="400" y="405.897">extends</text><!--link WindRoseComponent to ISidebarComponent--><path d="M363.63,501.54 C392.34,492.25 424.49,478.31 449,458 C496.24,418.84 527.82,351.56 541.79,316.96 " fill="none" id="WindRoseComponent-ISidebarComponent" style="stroke: #A80036; stroke-width: 1.0;"/><polygon fill="#A80036" points="543.48,312.7,536.4491,319.5968,541.6403,317.3492,543.8879,322.5404,543.48,312.7" style="stroke: #A80036; stroke-width: 1.0;"/><text fill="#000000" font-family="sans-serif" font-size="13" lengthAdjust="spacingAndGlyphs" textLength="48" x="400" y="453.897">extends</text><!--link GameInfoComponent to ISidebarComponent--><path d="M369.42,295 C401.82,295 439.61,295 472.22,295 " fill="none" id="GameInfoComponent-ISidebarComponent" style="stroke: #A80036; stroke-width: 1.0;"/><polygon fill="#A80036" points="477.16,295,468.16,291,472.16,295,468.16,299,477.16,295" style="stroke: #A80036; stroke-width: 1.0;"/><text fill="#000000" font-family="sans-serif" font-size="13" lengthAdjust="spacingAndGlyphs" textLength="48" x="400" y="290.897">extends</text><!--link GameComponent to HandComponent--><path d="M160.72,94 C183.22,94 207.41,94 228.79,94 " fill="none" id="GameComponent-HandComponent" style="stroke: #A80036; stroke-width: 1.0;"/><polygon fill="#A80036" points="147.73,94,153.73,98,159.73,94,153.73,90,147.73,94" style="stroke: #A80036; stroke-width: 1.0;"/><!--link GameComponent to GridComponent--><path d="M146.96,73.11 C176.96,63.54 211.99,52.37 240.06,43.41 " fill="none" id="GameComponent-GridComponent" style="stroke: #A80036; stroke-width: 1.0;"/><polygon fill="#A80036" points="134.58,77.06,141.5127,79.0442,146.0108,73.408,139.078,71.4237,134.58,77.06" style="stroke: #A80036; stroke-width: 1.0;"/><!--link GameComponent to SidebarComponent--><path d="M146.96,114.89 C176.96,124.46 211.99,135.63 240.06,144.59 " fill="none" id="GameComponent-SidebarComponent" style="stroke: #A80036; stroke-width: 1.0;"/><polygon fill="#A80036" points="134.58,110.94,139.078,116.5763,146.0108,114.592,141.5127,108.9558,134.58,110.94" style="stroke: #A80036; stroke-width: 1.0;"/><!--
@startuml
left to right direction
hide empty members
skinparam shadowing false

class GameComponent

class BicolumnComponent

class DeckComponent

class DiceComponent

class GridComponent

class HandComponent

class GameInfoComponent

class SidebarComponent

class WindRoseComponent

class IViewComponent << (T, lightblue) >>

class IGridComponent << (T, lightblue) >>

class ISidebarComponent << (T, lightblue) >>

class IHandComponent << (T, lightblue) >>

IGridComponent - -> IViewComponent: extends
ISidebarComponent - -> IViewComponent: extends
IHandComponent - -> IViewComponent: extends

GridComponent - -> IGridComponent: extends
HandComponent - -> IHandComponent: extends
SidebarComponent - -> ISidebarComponent: extends
BicolumnComponent - -> ISidebarComponent: extends
BicolumnComponent *- - DiceComponent
BicolumnComponent *- - GameInfoComponent
DiceComponent - -> ISidebarComponent: extends
DeckComponent - -> ISidebarComponent: extends
WindRoseComponent - -> ISidebarComponent: extends
GameInfoComponent - -> ISidebarComponent: extends

GameComponent *- - HandComponent
GameComponent *- - GridComponent
GameComponent *- - SidebarComponent
@enduml

PlantUML version 1.2019.06(Fri May 24 19:10:25 CEST 2019)
(APACHE source distribution)
Java Runtime: OpenJDK Runtime Environment
JVM: OpenJDK 64-Bit Server VM
Java Version: 21.0.3+9-LTS
Operating System: Linux
OS Version: 6.10.6-200.fc40.x86_64
Default Encoding: UTF-8
Language: it
Country: IT
--></g></svg>