<?xml version="1.0" encoding="UTF-8" standalone="no"?><svg xmlns="http://www.w3.org/2000/svg" xmlns:xlink="http://www.w3.org/1999/xlink" contentScriptType="application/ecmascript" contentStyleType="text/css" height="162px" preserveAspectRatio="none" style="width:681px;height:162px;" version="1.1" viewBox="0 0 681 162" width="681px" zoomAndPan="magnify"><defs/><g><!--class HandEffect--><rect fill="#FEFECE" height="32" id="HandEffect" style="stroke: #A80036; stroke-width: 1.5;" width="94" x="6" y="8"/><ellipse cx="21" cy="24" fill="#FFA500" rx="11" ry="11" style="stroke: #A80036; stroke-width: 1.0;"/><path d="M24.4688,30.5 L17.1563,30.5 L17.1563,17.8281 L24.4688,17.8281 L24.4688,19.7031 L19.2031,19.7031 L19.2031,22.9688 L24.1563,22.9688 L24.1563,24.8281 L19.2031,24.8281 L19.2031,28.625 L24.4688,28.625 L24.4688,30.5 Z "/><text fill="#000000" font-family="sans-serif" font-size="12" lengthAdjust="spacingAndGlyphs" textLength="62" x="35" y="28.656">HandEffect</text><!--class PatternEffect--><rect fill="#FEFECE" height="32" id="PatternEffect" style="stroke: #A80036; stroke-width: 1.5;" width="105" x="135.5" y="8"/><ellipse cx="150.5" cy="24" fill="#FFA500" rx="11" ry="11" style="stroke: #A80036; stroke-width: 1.0;"/><path d="M153.9688,30.5 L146.6563,30.5 L146.6563,17.8281 L153.9688,17.8281 L153.9688,19.7031 L148.7031,19.7031 L148.7031,22.9688 L153.6563,22.9688 L153.6563,24.8281 L148.7031,24.8281 L148.7031,28.625 L153.9688,28.625 L153.9688,30.5 Z "/><text fill="#000000" font-family="sans-serif" font-size="12" lengthAdjust="spacingAndGlyphs" textLength="73" x="164.5" y="28.656">PatternEffect</text><!--class MoveEffect--><rect fill="#FEFECE" height="32" id="MoveEffect" style="stroke: #A80036; stroke-width: 1.5;" width="95" x="275.5" y="8"/><ellipse cx="290.5" cy="24" fill="#FFA500" rx="11" ry="11" style="stroke: #A80036; stroke-width: 1.0;"/><path d="M293.9688,30.5 L286.6563,30.5 L286.6563,17.8281 L293.9688,17.8281 L293.9688,19.7031 L288.7031,19.7031 L288.7031,22.9688 L293.6563,22.9688 L293.6563,24.8281 L288.7031,24.8281 L288.7031,28.625 L293.9688,28.625 L293.9688,30.5 Z "/><text fill="#000000" font-family="sans-serif" font-size="12" lengthAdjust="spacingAndGlyphs" textLength="63" x="304.5" y="28.656">MoveEffect</text><!--class PhaseEffect--><rect fill="#FEFECE" height="32" id="PhaseEffect" style="stroke: #A80036; stroke-width: 1.5;" width="98" x="405" y="8"/><ellipse cx="420" cy="24" fill="#FFA500" rx="11" ry="11" style="stroke: #A80036; stroke-width: 1.0;"/><path d="M423.4688,30.5 L416.1563,30.5 L416.1563,17.8281 L423.4688,17.8281 L423.4688,19.7031 L418.2031,19.7031 L418.2031,22.9688 L423.1563,22.9688 L423.1563,24.8281 L418.2031,24.8281 L418.2031,28.625 L423.4688,28.625 L423.4688,30.5 Z "/><text fill="#000000" font-family="sans-serif" font-size="12" lengthAdjust="spacingAndGlyphs" textLength="66" x="434" y="28.656">PhaseEffect</text><!--class IGameEffect--><rect fill="#FEFECE" height="32" id="IGameEffect" style="stroke: #A80036; stroke-width: 1.5;" width="102" x="272" y="119"/><ellipse cx="287" cy="135" fill="#ADD8E6" rx="11" ry="11" style="stroke: #A80036; stroke-width: 1.0;"/><path d="M288.0156,142.25 L285.9688,142.25 L285.9688,131.4531 L282.1719,131.4531 L282.1719,129.5781 L291.7969,129.5781 L291.7969,131.4531 L288.0156,131.4531 L288.0156,142.25 Z "/><text fill="#000000" font-family="sans-serif" font-size="12" lengthAdjust="spacingAndGlyphs" textLength="70" x="301" y="139.656">IGameEffect</text><!--class GameBoardEffect--><rect fill="#FEFECE" height="32" id="GameBoardEffect" style="stroke: #A80036; stroke-width: 1.5;" width="132" x="538" y="8"/><ellipse cx="553" cy="24" fill="#ADD1B2" rx="11" ry="11" style="stroke: #A80036; stroke-width: 1.0;"/><path d="M553.1094,19.5313 Q552.1875,19.5313 551.4531,19.8438 Q550.7344,20.1563 550.2344,20.75 Q549.7344,21.3281 549.4531,22.2031 Q549.1875,23.0781 549.1875,24.1719 Q549.1875,25.6094 549.625,26.6563 Q550.0781,27.7031 550.9219,28.25 Q551.7813,28.7969 553.0938,28.7969 Q553.875,28.7969 554.5625,28.6719 Q555.2656,28.5313 556.2656,28.2188 L556.2656,30.0938 Q555.4063,30.4219 554.6406,30.5469 Q553.8906,30.6719 552.875,30.6719 Q550.9531,30.6719 549.6406,29.875 Q548.3438,29.0625 547.6875,27.5938 Q547.0313,26.1094 547.0313,24.1406 Q547.0313,22.7188 547.4219,21.5469 Q547.8281,20.3594 548.6094,19.4844 Q549.3906,18.6094 550.5313,18.1406 Q551.6719,17.6563 553.1406,17.6563 Q554.0938,17.6563 554.9844,17.8594 Q555.8906,18.0469 556.8281,18.5156 L556,20.2969 Q555.2188,19.9219 554.5625,19.7344 Q553.9063,19.5313 553.1094,19.5313 Z "/><text fill="#000000" font-family="sans-serif" font-size="12" lengthAdjust="spacingAndGlyphs" textLength="100" x="567" y="28.656">GameBoardEffect</text><!--link HandEffect to IGameEffect--><path d="M81.84,40.4 C108.25,54.15 148.63,74.33 185,89 C211.07,99.51 240.63,109.41 265.68,117.23 " fill="none" id="HandEffect-IGameEffect" style="stroke: #A80036; stroke-width: 1.0;"/><polygon fill="#A80036" points="270.17,118.62,262.7661,112.1252,265.3961,117.1335,260.3877,119.7635,270.17,118.62" style="stroke: #A80036; stroke-width: 1.0;"/><text fill="#000000" font-family="sans-serif" font-size="13" lengthAdjust="spacingAndGlyphs" textLength="48" x="186" y="84.897">extends</text><!--link PatternEffect to IGameEffect--><path d="M206.22,40.43 C221.73,53.51 244.67,72.67 265,89 C275.67,97.57 287.6,106.87 297.85,114.78 " fill="none" id="PatternEffect-IGameEffect" style="stroke: #A80036; stroke-width: 1.0;"/><polygon fill="#A80036" points="301.54,117.62,296.8633,108.9523,297.5833,114.5632,291.9724,115.2831,301.54,117.62" style="stroke: #A80036; stroke-width: 1.0;"/><text fill="#000000" font-family="sans-serif" font-size="13" lengthAdjust="spacingAndGlyphs" textLength="48" x="266" y="84.897">extends</text><!--link MoveEffect to IGameEffect--><path d="M323,40.16 C323,58.92 323,91.02 323,112.37 " fill="none" id="MoveEffect-IGameEffect" style="stroke: #A80036; stroke-width: 1.0;"/><polygon fill="#A80036" points="323,117.11,327,108.11,323,112.11,319,108.11,323,117.11" style="stroke: #A80036; stroke-width: 1.0;"/><text fill="#000000" font-family="sans-serif" font-size="13" lengthAdjust="spacingAndGlyphs" textLength="48" x="324" y="84.897">extends</text><!--link PhaseEffect to IGameEffect--><path d="M437.14,40.29 C422.5,53.45 400.63,72.8 381,89 C370.44,97.71 358.53,107.04 348.26,114.93 " fill="none" id="PhaseEffect-IGameEffect" style="stroke: #A80036; stroke-width: 1.0;"/><polygon fill="#A80036" points="344.57,117.75,354.1469,115.4514,348.539,114.709,349.2813,109.1011,344.57,117.75" style="stroke: #A80036; stroke-width: 1.0;"/><text fill="#000000" font-family="sans-serif" font-size="13" lengthAdjust="spacingAndGlyphs" textLength="48" x="404" y="84.897">extends</text><!--link GameBoardEffect to IGameEffect--><path d="M572.04,40.47 C543.32,54.09 499.83,74.03 461,89 C434.77,99.11 405.2,108.96 380.17,116.85 " fill="none" id="GameBoardEffect-IGameEffect" style="stroke: #A80036; stroke-width: 1.0;"/><polygon fill="#A80036" points="375.69,118.25,385.4723,119.3935,380.4639,116.7635,383.0939,111.7552,375.69,118.25" style="stroke: #A80036; stroke-width: 1.0;"/><text fill="#000000" font-family="sans-serif" font-size="13" lengthAdjust="spacingAndGlyphs" textLength="48" x="505" y="84.897">extends</text><!--
@startuml
hide empty members
skinparam shadowing false

class HandEffect << (E, orange) >>

class PatternEffect << (E, orange) >>

class MoveEffect << (E, orange) >>

class PhaseEffect << (E, orange) >>

class IGameEffect << (T, lightblue) >>

class GameBoardEffect

HandEffect      - -> IGameEffect: extends
PatternEffect   - -> IGameEffect: extends
MoveEffect      - -> IGameEffect: extends
PhaseEffect     - -> IGameEffect: extends
GameBoardEffect - -> IGameEffect: extends
@enduml

PlantUML version 1.2019.06(Fri May 24 19:10:25 CEST 2019)
(APACHE source distribution)
Java Runtime: OpenJDK Runtime Environment
JVM: OpenJDK 64-Bit Server VM
Java Version: 21.0.3+9-LTS
Operating System: Linux
OS Version: 6.10.6-200.fc40.x86_64
Default Encoding: UTF-8
Language: it
Country: IT
--></g></svg>