<?xml version="1.0" encoding="UTF-8" standalone="no"?><svg xmlns="http://www.w3.org/2000/svg" xmlns:xlink="http://www.w3.org/1999/xlink" contentScriptType="application/ecmascript" contentStyleType="text/css" height="162px" preserveAspectRatio="none" style="width:421px;height:162px;" version="1.1" viewBox="0 0 421 162" width="421px" zoomAndPan="magnify"><defs/><g><!--class DefensiveEffect--><rect fill="#FEFECE" height="32" id="DefensiveEffect" style="stroke: #A80036; stroke-width: 1.5;" width="120" x="6" y="8"/><ellipse cx="21" cy="24" fill="#ADD1B2" rx="11" ry="11" style="stroke: #A80036; stroke-width: 1.0;"/><path d="M21.1094,19.5313 Q20.1875,19.5313 19.4531,19.8438 Q18.7344,20.1563 18.2344,20.75 Q17.7344,21.3281 17.4531,22.2031 Q17.1875,23.0781 17.1875,24.1719 Q17.1875,25.6094 17.625,26.6563 Q18.0781,27.7031 18.9219,28.25 Q19.7813,28.7969 21.0938,28.7969 Q21.875,28.7969 22.5625,28.6719 Q23.2656,28.5313 24.2656,28.2188 L24.2656,30.0938 Q23.4063,30.4219 22.6406,30.5469 Q21.8906,30.6719 20.875,30.6719 Q18.9531,30.6719 17.6406,29.875 Q16.3438,29.0625 15.6875,27.5938 Q15.0313,26.1094 15.0313,24.1406 Q15.0313,22.7188 15.4219,21.5469 Q15.8281,20.3594 16.6094,19.4844 Q17.3906,18.6094 18.5313,18.1406 Q19.6719,17.6563 21.1406,17.6563 Q22.0938,17.6563 22.9844,17.8594 Q23.8906,18.0469 24.8281,18.5156 L24,20.2969 Q23.2188,19.9219 22.5625,19.7344 Q21.9063,19.5313 21.1094,19.5313 Z "/><text fill="#000000" font-family="sans-serif" font-size="12" lengthAdjust="spacingAndGlyphs" textLength="88" x="35" y="28.656">DefensiveEffect</text><!--class OffensiveEffect--><rect fill="#FEFECE" height="32" id="OffensiveEffect" style="stroke: #A80036; stroke-width: 1.5;" width="117" x="161.5" y="8"/><ellipse cx="176.5" cy="24" fill="#ADD1B2" rx="11" ry="11" style="stroke: #A80036; stroke-width: 1.0;"/><path d="M176.6094,19.5313 Q175.6875,19.5313 174.9531,19.8438 Q174.2344,20.1563 173.7344,20.75 Q173.2344,21.3281 172.9531,22.2031 Q172.6875,23.0781 172.6875,24.1719 Q172.6875,25.6094 173.125,26.6563 Q173.5781,27.7031 174.4219,28.25 Q175.2813,28.7969 176.5938,28.7969 Q177.375,28.7969 178.0625,28.6719 Q178.7656,28.5313 179.7656,28.2188 L179.7656,30.0938 Q178.9063,30.4219 178.1406,30.5469 Q177.3906,30.6719 176.375,30.6719 Q174.4531,30.6719 173.1406,29.875 Q171.8438,29.0625 171.1875,27.5938 Q170.5313,26.1094 170.5313,24.1406 Q170.5313,22.7188 170.9219,21.5469 Q171.3281,20.3594 172.1094,19.4844 Q172.8906,18.6094 174.0313,18.1406 Q175.1719,17.6563 176.6406,17.6563 Q177.5938,17.6563 178.4844,17.8594 Q179.3906,18.0469 180.3281,18.5156 L179.5,20.2969 Q178.7188,19.9219 178.0625,19.7344 Q177.4063,19.5313 176.6094,19.5313 Z "/><text fill="#000000" font-family="sans-serif" font-size="12" lengthAdjust="spacingAndGlyphs" textLength="85" x="190.5" y="28.656">OffensiveEffect</text><!--class ILogicComputation--><rect fill="#FEFECE" height="32" id="ILogicComputation" style="stroke: #A80036; stroke-width: 1.5;" width="137" x="151.5" y="119"/><ellipse cx="166.5" cy="135" fill="#ADD8E6" rx="11" ry="11" style="stroke: #A80036; stroke-width: 1.0;"/><path d="M167.5156,142.25 L165.4688,142.25 L165.4688,131.4531 L161.6719,131.4531 L161.6719,129.5781 L171.2969,129.5781 L171.2969,131.4531 L167.5156,131.4531 L167.5156,142.25 Z "/><text fill="#000000" font-family="sans-serif" font-size="12" lengthAdjust="spacingAndGlyphs" textLength="105" x="180.5" y="139.656">ILogicComputation</text><!--class ILogicEffect--><rect fill="#FEFECE" height="32" id="ILogicEffect" style="stroke: #A80036; stroke-width: 1.5;" width="97" x="313.5" y="8"/><ellipse cx="328.5" cy="24" fill="#ADD8E6" rx="11" ry="11" style="stroke: #A80036; stroke-width: 1.0;"/><path d="M329.5156,31.25 L327.4688,31.25 L327.4688,20.4531 L323.6719,20.4531 L323.6719,18.5781 L333.2969,18.5781 L333.2969,20.4531 L329.5156,20.4531 L329.5156,31.25 Z "/><text fill="#000000" font-family="sans-serif" font-size="12" lengthAdjust="spacingAndGlyphs" textLength="65" x="342.5" y="28.656">ILogicEffect</text><!--link DefensiveEffect to ILogicComputation--><path d="M87.74,40.39 C115.48,60.02 163.46,93.98 193.37,115.15 " fill="none" id="DefensiveEffect-ILogicComputation" style="stroke: #A80036; stroke-width: 1.0;"/><polygon fill="#A80036" points="197.14,117.82,192.0963,109.3606,193.056,114.9355,187.4811,115.8951,197.14,117.82" style="stroke: #A80036; stroke-width: 1.0;"/><text fill="#000000" font-family="sans-serif" font-size="13" lengthAdjust="spacingAndGlyphs" textLength="48" x="154" y="84.897">extends</text><!--link OffensiveEffect to ILogicComputation--><path d="M220,40.16 C220,58.92 220,91.02 220,112.37 " fill="none" id="OffensiveEffect-ILogicComputation" style="stroke: #A80036; stroke-width: 1.0;"/><polygon fill="#A80036" points="220,117.11,224,108.11,220,112.11,216,108.11,220,117.11" style="stroke: #A80036; stroke-width: 1.0;"/><text fill="#000000" font-family="sans-serif" font-size="13" lengthAdjust="spacingAndGlyphs" textLength="48" x="221" y="84.897">extends</text><!--link ILogicEffect to ILogicComputation--><path d="M330.54,49.15 C302.88,70.38 263.47,100.63 239.94,118.69 " fill="none" id="ILogicEffect-ILogicComputation" style="stroke: #A80036; stroke-width: 1.0;"/><polygon fill="#A80036" points="340.76,41.31,333.5648,41.7891,331.2397,48.6151,338.4349,48.136,340.76,41.31" style="stroke: #A80036; stroke-width: 1.0;"/><!--
@startuml
hide empty members
skinparam shadowing false

class DefensiveEffect
class OffensiveEffect

class ILogicComputation << (T, lightblue) >>
class ILogicEffect << (T, lightblue) >>

DefensiveEffect - -> ILogicComputation: extends
OffensiveEffect - -> ILogicComputation: extends
ILogicEffect *- - ILogicComputation
@enduml

PlantUML version 1.2019.06(Fri May 24 19:10:25 CEST 2019)
(APACHE source distribution)
Java Runtime: OpenJDK Runtime Environment
JVM: OpenJDK 64-Bit Server VM
Java Version: 21.0.3+9-LTS
Operating System: Linux
OS Version: 6.10.6-200.fc40.x86_64
Default Encoding: UTF-8
Language: it
Country: IT
--></g></svg>