<?xml version="1.0" encoding="UTF-8" standalone="no"?><svg xmlns="http://www.w3.org/2000/svg" xmlns:xlink="http://www.w3.org/1999/xlink" contentScriptType="application/ecmascript" contentStyleType="text/css" height="185px" preserveAspectRatio="none" style="width:1026px;height:185px;" version="1.1" viewBox="0 0 1026 185" width="1026px" zoomAndPan="magnify"><defs/><g><!--class ISolveGameEffect--><rect fill="#FEFECE" height="32" id="ISolveGameEffect" style="stroke: #A80036; stroke-width: 1.5;" width="449" x="566" y="75"/><ellipse cx="581" cy="91" fill="#ADD8E6" rx="11" ry="11" style="stroke: #A80036; stroke-width: 1.0;"/><path d="M582.0156,98.25 L579.9688,98.25 L579.9688,87.4531 L576.1719,87.4531 L576.1719,85.5781 L585.7969,85.5781 L585.7969,87.4531 L582.0156,87.4531 L582.0156,98.25 Z "/><text fill="#000000" font-family="sans-serif" font-size="12" lengthAdjust="spacingAndGlyphs" textLength="417" x="595" y="95.656">ISolveGameEffect[InputEffect &lt;: IGameEffect, OutputEffect &lt;: IGameEffect]</text><!--class GameEffectSolver--><rect fill="#FEFECE" height="32" id="GameEffectSolver" style="stroke: #A80036; stroke-width: 1.5;" width="450" x="6" y="8"/><ellipse cx="21" cy="24" fill="#ADD1B2" rx="11" ry="11" style="stroke: #A80036; stroke-width: 1.0;"/><path d="M21.1094,19.5313 Q20.1875,19.5313 19.4531,19.8438 Q18.7344,20.1563 18.2344,20.75 Q17.7344,21.3281 17.4531,22.2031 Q17.1875,23.0781 17.1875,24.1719 Q17.1875,25.6094 17.625,26.6563 Q18.0781,27.7031 18.9219,28.25 Q19.7813,28.7969 21.0938,28.7969 Q21.875,28.7969 22.5625,28.6719 Q23.2656,28.5313 24.2656,28.2188 L24.2656,30.0938 Q23.4063,30.4219 22.6406,30.5469 Q21.8906,30.6719 20.875,30.6719 Q18.9531,30.6719 17.6406,29.875 Q16.3438,29.0625 15.6875,27.5938 Q15.0313,26.1094 15.0313,24.1406 Q15.0313,22.7188 15.4219,21.5469 Q15.8281,20.3594 16.6094,19.4844 Q17.3906,18.6094 18.5313,18.1406 Q19.6719,17.6563 21.1406,17.6563 Q22.0938,17.6563 22.9844,17.8594 Q23.8906,18.0469 24.8281,18.5156 L24,20.2969 Q23.2188,19.9219 22.5625,19.7344 Q21.9063,19.5313 21.1094,19.5313 Z "/><text fill="#000000" font-family="sans-serif" font-size="12" lengthAdjust="spacingAndGlyphs" textLength="418" x="35" y="28.656">GameEffectSolver[InputEffect &lt;: IGameEffect, OutputEffect &lt;: IGameEffect]</text><!--class LogicEffectSolver--><rect fill="#FEFECE" height="32" id="LogicEffectSolver" style="stroke: #A80036; stroke-width: 1.5;" width="274" x="94" y="75"/><ellipse cx="109" cy="91" fill="#ADD1B2" rx="11" ry="11" style="stroke: #A80036; stroke-width: 1.0;"/><path d="M109.1094,86.5313 Q108.1875,86.5313 107.4531,86.8438 Q106.7344,87.1563 106.2344,87.75 Q105.7344,88.3281 105.4531,89.2031 Q105.1875,90.0781 105.1875,91.1719 Q105.1875,92.6094 105.625,93.6563 Q106.0781,94.7031 106.9219,95.25 Q107.7813,95.7969 109.0938,95.7969 Q109.875,95.7969 110.5625,95.6719 Q111.2656,95.5313 112.2656,95.2188 L112.2656,97.0938 Q111.4063,97.4219 110.6406,97.5469 Q109.8906,97.6719 108.875,97.6719 Q106.9531,97.6719 105.6406,96.875 Q104.3438,96.0625 103.6875,94.5938 Q103.0313,93.1094 103.0313,91.1406 Q103.0313,89.7188 103.4219,88.5469 Q103.8281,87.3594 104.6094,86.4844 Q105.3906,85.6094 106.5313,85.1406 Q107.6719,84.6563 109.1406,84.6563 Q110.0938,84.6563 110.9844,84.8594 Q111.8906,85.0469 112.8281,85.5156 L112,87.2969 Q111.2188,86.9219 110.5625,86.7344 Q109.9063,86.5313 109.1094,86.5313 Z "/><text fill="#000000" font-family="sans-serif" font-size="12" lengthAdjust="spacingAndGlyphs" textLength="242" x="123" y="95.656">LogicEffectSolver[CardEffect &lt;: ICardEffect]</text><!--class PatternEffectSolver--><rect fill="#FEFECE" height="32" id="PatternEffectSolver" style="stroke: #A80036; stroke-width: 1.5;" width="440" x="11" y="142"/><ellipse cx="26" cy="158" fill="#ADD1B2" rx="11" ry="11" style="stroke: #A80036; stroke-width: 1.0;"/><path d="M26.1094,153.5313 Q25.1875,153.5313 24.4531,153.8438 Q23.7344,154.1563 23.2344,154.75 Q22.7344,155.3281 22.4531,156.2031 Q22.1875,157.0781 22.1875,158.1719 Q22.1875,159.6094 22.625,160.6563 Q23.0781,161.7031 23.9219,162.25 Q24.7813,162.7969 26.0938,162.7969 Q26.875,162.7969 27.5625,162.6719 Q28.2656,162.5313 29.2656,162.2188 L29.2656,164.0938 Q28.4063,164.4219 27.6406,164.5469 Q26.8906,164.6719 25.875,164.6719 Q23.9531,164.6719 22.6406,163.875 Q21.3438,163.0625 20.6875,161.5938 Q20.0313,160.1094 20.0313,158.1406 Q20.0313,156.7188 20.4219,155.5469 Q20.8281,154.3594 21.6094,153.4844 Q22.3906,152.6094 23.5313,152.1406 Q24.6719,151.6563 26.1406,151.6563 Q27.0938,151.6563 27.9844,151.8594 Q28.8906,152.0469 29.8281,152.5156 L29,154.2969 Q28.2188,153.9219 27.5625,153.7344 Q26.9063,153.5313 26.1094,153.5313 Z "/><text fill="#000000" font-family="sans-serif" font-size="12" lengthAdjust="spacingAndGlyphs" textLength="408" x="40" y="162.656">PatternEffectSolver[GameBoardEffect, PatternEffect | GameBoardEffect]</text><!--link GameEffectSolver to ISolveGameEffect--><path d="M369.09,40.48 C453.23,50.59 560.82,63.52 646.09,73.77 " fill="none" id="GameEffectSolver-ISolveGameEffect" style="stroke: #A80036; stroke-width: 1.0;"/><polygon fill="#A80036" points="650.95,74.35,642.4798,69.3244,645.9843,73.765,641.5438,77.2695,650.95,74.35" style="stroke: #A80036; stroke-width: 1.0;"/><text fill="#000000" font-family="sans-serif" font-size="13" lengthAdjust="spacingAndGlyphs" textLength="48" x="487" y="51.897">extends</text><!--link LogicEffectSolver to ISolveGameEffect--><path d="M368.38,91 C425.92,91 494.52,91 559.48,91 " fill="none" id="LogicEffectSolver-ISolveGameEffect" style="stroke: #A80036; stroke-width: 1.0;"/><polygon fill="#A80036" points="564.24,91,555.24,87,559.24,91,555.24,95,564.24,91" style="stroke: #A80036; stroke-width: 1.0;"/><text fill="#000000" font-family="sans-serif" font-size="13" lengthAdjust="spacingAndGlyphs" textLength="48" x="487" y="86.897">extends</text><!--link PatternEffectSolver to ISolveGameEffect--><path d="M369.09,141.52 C453.23,131.41 560.82,118.48 646.09,108.23 " fill="none" id="PatternEffectSolver-ISolveGameEffect" style="stroke: #A80036; stroke-width: 1.0;"/><polygon fill="#A80036" points="650.95,107.65,641.5438,104.7305,645.9843,108.235,642.4798,112.6756,650.95,107.65" style="stroke: #A80036; stroke-width: 1.0;"/><text fill="#000000" font-family="sans-serif" font-size="13" lengthAdjust="spacingAndGlyphs" textLength="48" x="487" y="117.897">extends</text><!--
@startuml
hide empty members
skinparam shadowing false
left to right direction

class ISolveGameEffect as "ISolveGameEffect[InputEffect <: IGameEffect, OutputEffect <: IGameEffect]" << (T, lightblue) >>

class GameEffectSolver as "GameEffectSolver[InputEffect <: IGameEffect, OutputEffect <: IGameEffect]"

class LogicEffectSolver as "LogicEffectSolver[CardEffect <: ICardEffect]"

class PatternEffectSolver as "PatternEffectSolver[GameBoardEffect, PatternEffect | GameBoardEffect]"

GameEffectSolver    - -> ISolveGameEffect: extends
LogicEffectSolver   - -> ISolveGameEffect: extends
PatternEffectSolver - -> ISolveGameEffect: extends
@enduml

PlantUML version 1.2019.06(Fri May 24 19:10:25 CEST 2019)
(APACHE source distribution)
Java Runtime: OpenJDK Runtime Environment
JVM: OpenJDK 64-Bit Server VM
Java Version: 21.0.3+9-LTS
Operating System: Linux
OS Version: 6.10.6-200.fc40.x86_64
Default Encoding: UTF-8
Language: it
Country: IT
--></g></svg>